<?xml version="1.0" encoding="UTF-8" standalone="no"?>
<svg
   xmlns:dc="http://purl.org/dc/elements/1.1/"
   xmlns:cc="http://creativecommons.org/ns#"
   xmlns:rdf="http://www.w3.org/1999/02/22-rdf-syntax-ns#"
   xmlns:svg="http://www.w3.org/2000/svg"
   xmlns="http://www.w3.org/2000/svg"
   id="svg3834"
   version="1.1"
   viewBox="0 0 240 86.394997"
   height="86.394997mm"
   width="240mm">
  <defs
     id="defs3828" />
  <metadata
     id="metadata3831">
    <rdf:RDF>
      <cc:Work
         rdf:about="">
        <dc:format>image/svg+xml</dc:format>
        <dc:type
           rdf:resource="http://purl.org/dc/dcmitype/StillImage" />
        <dc:title></dc:title>
      </cc:Work>
    </rdf:RDF>
  </metadata>
  <g
     transform="translate(0,-210.605)"
     id="layer1">
    <g
       style="stroke-width:1.6352731"
       transform="matrix(0.61639278,0,0,0.60668233,76.881704,163.66615)"
       id="g4441">
      <g
         style="stroke-width:1.63528228"
         transform="matrix(0.99999437,0,0,0.99999437,-2182.9672,347.25067)"
         id="g1147">
        <g
           aria-label="SALVADOR"
           style="font-style:normal;font-variant:normal;font-weight:300;font-stretch:normal;font-size:63.11650467px;line-height:1.25;font-family:Raleway;-inkscape-font-specification:'Raleway, Light';font-variant-ligatures:normal;font-variant-caps:normal;font-variant-numeric:normal;font-feature-settings:normal;text-align:start;letter-spacing:0px;word-spacing:0px;writing-mode:lr-tb;text-anchor:start;opacity:1;fill:#1a202c;fill-opacity:1;stroke:none;stroke-width:0.43266842"
           id="g1129"
           transform="translate(2.091238e-5,1.2967027e-4)">
          <path
             d="m 2122.6601,-243.19082 q -4.355,-4.85997 -12.3077,-4.85997 -6.5641,0 -9.5937,2.52466 -2.9665,2.46154 -2.9665,6.69035 0,2.14596 0.7574,3.59764 0.7574,1.38856 2.3353,2.39842 1.641,1.00987 4.1026,1.70415 2.4615,0.69428 5.9329,1.45168 3.5977,0.7574 6.501,1.70415 2.9665,0.88363 4.9862,2.27219 2.0829,1.38856 3.1559,3.40829 1.1361,2.01973 1.1361,4.9862 0,2.96648 -1.1993,5.17556 -1.1361,2.20908 -3.282,3.72387 -2.0829,1.45168 -5.0493,2.20908 -2.9034,0.7574 -6.501,0.7574 -10.4774,0 -17.7358,-6.69035 l 1.7042,-2.58778 q 2.8402,2.96648 6.9428,4.73374 4.1026,1.70414 9.215,1.70414 5.8698,0 9.1519,-2.14596 3.3452,-2.14596 3.3452,-6.501 0,-2.20907 -0.8837,-3.72387 -0.8836,-1.57791 -2.6509,-2.71401 -1.7041,-1.1361 -4.355,-1.95661 -2.6509,-0.82052 -6.1854,-1.57791 -3.5977,-0.7574 -6.3748,-1.57792 -2.714,-0.88363 -4.6075,-2.14596 -1.8304,-1.32544 -2.7771,-3.15582 -0.9468,-1.83038 -0.9468,-4.60751 0,-3.02959 1.1361,-5.3649 1.1992,-2.33531 3.2821,-3.91322 2.0828,-1.64103 4.9862,-2.46155 2.9034,-0.82051 6.4379,-0.82051 4.355,0 7.7633,1.32544 3.4083,1.26233 6.1854,3.91323 z"
             style="font-style:normal;font-variant:normal;font-weight:300;font-stretch:normal;font-size:63.11650467px;font-family:Raleway;-inkscape-font-specification:'Raleway, Light';font-variant-ligatures:normal;font-variant-caps:normal;font-variant-numeric:normal;font-feature-settings:normal;text-align:start;writing-mode:lr-tb;text-anchor:start;fill:#1a202c;fill-opacity:1;stroke-width:0.43266842"
             id="path1113" />
          <path
             d="m 2148.1434,-250.63857 h 2.7771 l 18.935,44.81272 h -3.4083 l -6.2486,-14.76926 h -21.3965 l -6.2485,14.76926 h -3.4714 z m 11.1716,27.39256 -9.7831,-23.47934 -9.9724,23.47934 z"
             style="font-style:normal;font-variant:normal;font-weight:300;font-stretch:normal;font-size:63.11650467px;font-family:Raleway;-inkscape-font-specification:'Raleway, Light';font-variant-ligatures:normal;font-variant-caps:normal;font-variant-numeric:normal;font-feature-settings:normal;text-align:start;writing-mode:lr-tb;text-anchor:start;fill:#1a202c;fill-opacity:1;stroke-width:0.43266842"
             id="path1115" />
          <path
             d="m 2176.7214,-205.82585 v -44.81272 h 3.2189 v 41.90936 h 26.7614 v 2.90336 z"
             style="font-style:normal;font-variant:normal;font-weight:300;font-stretch:normal;font-size:63.11650467px;font-family:Raleway;-inkscape-font-specification:'Raleway, Light';font-variant-ligatures:normal;font-variant-caps:normal;font-variant-numeric:normal;font-feature-settings:normal;text-align:start;writing-mode:lr-tb;text-anchor:start;fill:#1a202c;fill-opacity:1;stroke-width:0.43266842"
             id="path1117" />
          <path
             d="m 2204.7924,-250.63857 17.0415,40.77326 17.0414,-40.77326 h 3.4083 l -18.9349,44.81272 h -2.9665 l -18.9981,-44.81272 z"
             style="font-style:normal;font-variant:normal;font-weight:300;font-stretch:normal;font-size:63.11650467px;font-family:Raleway;-inkscape-font-specification:'Raleway, Light';font-variant-ligatures:normal;font-variant-caps:normal;font-variant-numeric:normal;font-feature-settings:normal;text-align:start;writing-mode:lr-tb;text-anchor:start;fill:#1a202c;fill-opacity:1;stroke-width:0.43266842"
             id="path1119" />
          <path
             d="m 2259.4602,-250.63857 h 2.7771 l 18.935,44.81272 h -3.4083 l -6.2486,-14.76926 h -21.3964 l -6.2486,14.76926 h -3.4714 z m 11.1716,27.39256 -9.783,-23.47934 -9.9724,23.47934 z"
             style="font-style:normal;font-variant:normal;font-weight:300;font-stretch:normal;font-size:63.11650467px;font-family:Raleway;-inkscape-font-specification:'Raleway, Light';font-variant-ligatures:normal;font-variant-caps:normal;font-variant-numeric:normal;font-feature-settings:normal;text-align:start;writing-mode:lr-tb;text-anchor:start;fill:#1a202c;fill-opacity:1;stroke-width:0.43266842"
             id="path1121" />
          <path
             d="m 2288.0382,-205.82585 v -44.81272 h 14.8954 q 5.3018,0 9.2782,1.76726 4.0394,1.76726 6.6903,4.79686 2.6509,3.02959 3.9764,7.13216 1.3254,4.03946 1.3254,8.64696 0,5.11244 -1.5148,9.27813 -1.4517,4.10257 -4.2288,7.06905 -2.7771,2.90336 -6.7535,4.54439 -3.9132,1.57791 -8.7732,1.57791 z m 32.9468,-22.46948 q 0,-4.2288 -1.1992,-7.76333 -1.1993,-3.59764 -3.5346,-6.18541 -2.2722,-2.58778 -5.6173,-4.03946 -3.3452,-1.45168 -7.7003,-1.45168 h -11.6765 v 39.006 h 11.6765 q 4.4182,0 7.7634,-1.45168 3.4083,-1.5148 5.6805,-4.16569 2.2722,-2.65089 3.4083,-6.18542 1.1992,-3.59764 1.1992,-7.76333 z"
             style="font-style:normal;font-variant:normal;font-weight:300;font-stretch:normal;font-size:63.11650467px;font-family:Raleway;-inkscape-font-specification:'Raleway, Light';font-variant-ligatures:normal;font-variant-caps:normal;font-variant-numeric:normal;font-feature-settings:normal;text-align:start;writing-mode:lr-tb;text-anchor:start;fill:#1a202c;fill-opacity:1;stroke-width:0.43266842"
             id="path1123" />
          <path
             d="m 2350.8953,-205.51027 q -4.6706,0 -8.5207,-1.95661 -3.8501,-1.95661 -6.6273,-5.11244 -2.7771,-3.15582 -4.2919,-7.2584 -1.5148,-4.10257 -1.5148,-8.39449 0,-4.48127 1.5779,-8.58385 1.6411,-4.10257 4.4182,-7.25839 2.8402,-3.15583 6.6903,-4.98621 3.8501,-1.89349 8.3314,-1.89349 4.6706,0 8.5207,2.01973 3.9133,1.95661 6.6273,5.17555 2.7771,3.21894 4.2919,7.32151 1.5148,4.03946 1.5148,8.20515 0,4.54439 -1.641,8.64696 -1.578,4.10257 -4.4182,7.2584 -2.7771,3.09271 -6.6272,4.9862 -3.8501,1.83038 -8.3314,1.83038 z m -17.7357,-22.72194 q 0,3.85011 1.2623,7.44775 1.3254,3.53452 3.6607,6.31165 2.3985,2.71401 5.6805,4.35504 3.2821,1.64103 7.1953,1.64103 4.0395,0 7.2584,-1.70415 3.2821,-1.70415 5.5543,-4.48127 2.3353,-2.84024 3.5976,-6.37477 1.2623,-3.53452 1.2623,-7.19528 0,-3.85011 -1.3254,-7.38463 -1.3255,-3.59764 -3.7239,-6.31165 -2.3353,-2.77713 -5.5542,-4.41816 -3.219,-1.64103 -7.0691,-1.64103 -4.0395,0 -7.3215,1.70415 -3.2821,1.70414 -5.6174,4.54439 -2.3353,2.77712 -3.5976,6.31165 -1.2623,3.53452 -1.2623,7.19528 z"
             style="font-style:normal;font-variant:normal;font-weight:300;font-stretch:normal;font-size:63.11650467px;font-family:Raleway;-inkscape-font-specification:'Raleway, Light';font-variant-ligatures:normal;font-variant-caps:normal;font-variant-numeric:normal;font-feature-settings:normal;text-align:start;writing-mode:lr-tb;text-anchor:start;fill:#1a202c;fill-opacity:1;stroke-width:0.43266842"
             id="path1125" />
          <path
             d="m 2380.6172,-205.82585 v -44.81272 h 18.6194 q 2.8403,0 5.2387,1.19921 2.3984,1.19922 4.1026,3.21895 1.7672,1.95661 2.714,4.48127 1.0098,2.46154 1.0098,4.9862 0,2.46154 -0.7574,4.79686 -0.7574,2.27219 -2.1459,4.10257 -1.3886,1.83038 -3.3452,3.02959 -1.9566,1.19921 -4.2919,1.57791 l 11.1716,17.42016 h -3.7239 l -10.856,-16.91522 h -14.5168 v 16.91522 z m 3.219,-19.8817 h 15.716 q 2.146,0 3.9132,-0.94675 1.7673,-0.94675 3.0296,-2.46154 1.2623,-1.57791 1.8935,-3.53453 0.6943,-2.01972 0.6943,-4.10257 0,-2.14596 -0.8205,-4.10257 -0.7574,-2.01973 -2.146,-3.53453 -1.3254,-1.51479 -3.1558,-2.39842 -1.7673,-0.94675 -3.8501,-0.94675 h -15.2742 z"
             style="font-style:normal;font-variant:normal;font-weight:300;font-stretch:normal;font-size:63.11650467px;font-family:Raleway;-inkscape-font-specification:'Raleway, Light';font-variant-ligatures:normal;font-variant-caps:normal;font-variant-numeric:normal;font-feature-settings:normal;text-align:start;writing-mode:lr-tb;text-anchor:start;fill:#1a202c;fill-opacity:1;stroke-width:0.43266842"
             id="path1127" />
        </g>
        <g
           aria-label="MONTIEL"
           style="font-style:normal;font-variant:normal;font-weight:600;font-stretch:normal;font-size:73.19444275px;line-height:1.25;font-family:Raleway;-inkscape-font-specification:'Raleway, Semi-Bold';font-variant-ligatures:normal;font-variant-caps:normal;font-variant-numeric:normal;font-feature-settings:normal;text-align:start;letter-spacing:0px;word-spacing:0px;writing-mode:lr-tb;text-anchor:start;opacity:1;fill:#1a202c;fill-opacity:1;stroke:none;stroke-width:0.43266848"
           id="g1145"
           transform="translate(2.0912381e-5,-1.4626461e-6)">
          <path
             d="m 2136.63,-146.7704 v -37.40236 l -15.444,28.32625 h -4.5381 l -15.5172,-28.32625 v 37.40236 h -8.1978 v -51.96806 h 8.7834 l 17.2007,31.76639 17.2007,-31.76639 h 8.7833 v 51.96806 z"
             style="font-style:normal;font-variant:normal;font-weight:600;font-stretch:normal;font-size:73.19444275px;font-family:Raleway;-inkscape-font-specification:'Raleway, Semi-Bold';font-variant-ligatures:normal;font-variant-caps:normal;font-variant-numeric:normal;font-feature-settings:normal;text-align:start;writing-mode:lr-tb;text-anchor:start;fill:#1a202c;fill-opacity:1;stroke-width:0.43266848"
             id="path1131" />
          <path
             d="m 2178.1416,-146.40443 q -5.5628,0 -10.1741,-2.19583 -4.538,-2.26903 -7.8318,-5.92875 -3.2937,-3.73292 -5.1236,-8.49056 -1.7566,-4.75764 -1.7566,-9.73486 0,-5.1968 1.903,-9.95444 1.9031,-4.75764 5.1968,-8.41736 3.367,-3.65973 7.905,-5.78236 4.6113,-2.19584 10.0277,-2.19584 5.5627,0 10.1008,2.34222 4.6112,2.26903 7.8318,6.00195 3.2938,3.73292 5.0504,8.49055 1.8299,4.68445 1.8299,9.58848 0,5.1968 -1.9031,9.95444 -1.8298,4.75764 -5.1968,8.41736 -3.3669,3.58653 -7.9782,5.78236 -4.538,2.12264 -9.8812,2.12264 z m -16.542,-26.35 q 0,3.65972 1.1711,7.09986 1.1712,3.44014 3.2938,6.07514 2.1958,2.635 5.27,4.24528 3.0742,1.53708 6.8803,1.53708 3.9525,0 6.9534,-1.61028 3.0742,-1.68347 5.1968,-4.39166 2.1227,-2.7082 3.2206,-6.07514 1.0979,-3.36694 1.0979,-6.88028 0,-3.73291 -1.1711,-7.09986 -1.1711,-3.44014 -3.3669,-6.00194 -2.1227,-2.635 -5.1968,-4.17209 -3.001,-1.61027 -6.7339,-1.61027 -3.9525,0 -7.0267,1.68347 -3.0742,1.61028 -5.1968,4.24528 -2.1226,2.635 -3.2938,6.07513 -1.0979,3.36695 -1.0979,6.88028 z"
             style="font-style:normal;font-variant:normal;font-weight:600;font-stretch:normal;font-size:73.19444275px;font-family:Raleway;-inkscape-font-specification:'Raleway, Semi-Bold';font-variant-ligatures:normal;font-variant-caps:normal;font-variant-numeric:normal;font-feature-settings:normal;text-align:start;writing-mode:lr-tb;text-anchor:start;fill:#1a202c;fill-opacity:1;stroke-width:0.43266848"
             id="path1133" />
          <path
             d="m 2219.7858,-183.36762 v 36.59722 h -8.1978 v -51.96806 h 6.4411 l 29.717,37.47556 v -37.40236 h 8.2709 v 51.89486 h -6.807 z"
             style="font-style:normal;font-variant:normal;font-weight:600;font-stretch:normal;font-size:73.19444275px;font-family:Raleway;-inkscape-font-specification:'Raleway, Semi-Bold';font-variant-ligatures:normal;font-variant-caps:normal;font-variant-numeric:normal;font-feature-settings:normal;text-align:start;writing-mode:lr-tb;text-anchor:start;fill:#1a202c;fill-opacity:1;stroke-width:0.43266848"
             id="path1135" />
          <path
             d="m 2305.9048,-191.49221 h -17.2739 v 44.72181 h -8.271 v -44.72181 h -17.3471 v -7.24625 h 42.892 z"
             style="font-style:normal;font-variant:normal;font-weight:600;font-stretch:normal;font-size:73.19444275px;font-family:Raleway;-inkscape-font-specification:'Raleway, Semi-Bold';font-variant-ligatures:normal;font-variant-caps:normal;font-variant-numeric:normal;font-feature-settings:normal;text-align:start;writing-mode:lr-tb;text-anchor:start;fill:#1a202c;fill-opacity:1;stroke-width:0.43266848"
             id="path1137" />
          <path
             d="m 2312.8022,-146.7704 v -51.96806 H 2321 v 51.96806 z"
             style="font-style:normal;font-variant:normal;font-weight:600;font-stretch:normal;font-size:73.19444275px;font-family:Raleway;-inkscape-font-specification:'Raleway, Semi-Bold';font-variant-ligatures:normal;font-variant-caps:normal;font-variant-numeric:normal;font-feature-settings:normal;text-align:start;writing-mode:lr-tb;text-anchor:start;fill:#1a202c;fill-opacity:1;stroke-width:0.43266848"
             id="path1139" />
          <path
             d="m 2368.319,-154.01665 v 7.24625 h -35.6457 v -51.96806 h 34.987 v 7.24625 h -26.7892 v 14.78528 h 23.2027 v 6.80709 h -23.2027 v 15.88319 z"
             style="font-style:normal;font-variant:normal;font-weight:600;font-stretch:normal;font-size:73.19444275px;font-family:Raleway;-inkscape-font-specification:'Raleway, Semi-Bold';font-variant-ligatures:normal;font-variant-caps:normal;font-variant-numeric:normal;font-feature-settings:normal;text-align:start;writing-mode:lr-tb;text-anchor:start;fill:#1a202c;fill-opacity:1;stroke-width:0.43266848"
             id="path1141" />
          <path
             d="m 2376.8473,-146.7704 v -51.96806 h 8.1978 v 44.72181 h 27.8871 v 7.24625 z"
             style="font-style:normal;font-variant:normal;font-weight:600;font-stretch:normal;font-size:73.19444275px;font-family:Raleway;-inkscape-font-specification:'Raleway, Semi-Bold';font-variant-ligatures:normal;font-variant-caps:normal;font-variant-numeric:normal;font-feature-settings:normal;text-align:start;writing-mode:lr-tb;text-anchor:start;fill:#1a202c;fill-opacity:1;stroke-width:0.43266848"
             id="path1143" />
        </g>
      </g>
      <path
         style="opacity:1;fill:none;fill-opacity:0.99541285;fill-rule:nonzero;stroke:#1a202c;stroke-width:8.65331936;stroke-linecap:square;stroke-linejoin:miter;stroke-miterlimit:4;stroke-dasharray:none;stroke-opacity:1;paint-order:stroke markers fill"
         d="M -120.40177,81.696396 H 260.30706 V 215.44873 h -380.70883 z"
         id="rect1149" />
    </g>
  </g>
</svg>
