<?xml version="1.0" standalone="no"?>
<!DOCTYPE svg PUBLIC "-//W3C//DTD SVG 20010904//EN"
 "http://www.w3.org/TR/2001/REC-SVG-20010904/DTD/svg10.dtd">
<svg version="1.0" xmlns="http://www.w3.org/2000/svg"
 width="756.000000pt" height="756.000000pt" viewBox="0 0 756.000000 756.000000"
 preserveAspectRatio="xMidYMid meet">
<metadata>
Created by potrace 1.11, written by Peter Selinger 2001-2013
</metadata>
<g transform="translate(0.000000,756.000000) scale(0.100000,-0.100000)"
fill="#000000" stroke="none">
<path d="M0 3780 l0 -1890 3780 0 3780 0 0 1890 0 1890 -3780 0 -3780 0 0
-1890z m7370 0 l0 -1700 -1700 0 -1700 0 0 1700 0 1700 1700 0 1700 0 0 -1700z
m-5328 1319 c253 -25 452 -100 646 -243 34 -25 62 -51 62 -57 0 -8 -100 -180
-116 -197 -1 -2 -31 21 -67 51 -170 144 -342 204 -612 213 -150 5 -182 4 -275
-16 -128 -26 -212 -65 -283 -130 -122 -112 -167 -306 -110 -483 30 -95 152
-188 321 -246 62 -21 216 -61 452 -116 341 -80 514 -154 646 -277 72 -68 115
-130 146 -214 19 -52 22 -79 22 -224 0 -155 -1 -169 -26 -231 -80 -202 -222
-331 -448 -409 -242 -83 -655 -81 -938 4 -111 34 -255 98 -355 158 -82 50
-207 144 -207 156 0 10 111 192 121 198 5 3 33 -16 62 -42 98 -89 250 -178
385 -225 160 -56 301 -79 478 -79 271 0 458 59 564 178 68 76 93 147 94 271 1
95 0 100 -38 175 -45 88 -82 124 -190 183 -116 63 -201 90 -556 178 -336 84
-454 126 -582 207 -118 75 -180 152 -220 273 -19 58 -23 91 -23 195 0 150 14
217 69 330 31 66 58 102 116 161 139 140 315 219 569 254 124 17 168 17 293 4z"/>
<path d="M4370 3780 l0 -1321 128 3 127 3 5 1075 c5 1002 6 1073 21 1050 9
-14 103 -176 209 -360 106 -184 245 -427 310 -540 65 -113 172 -299 238 -415
67 -115 137 -236 156 -267 l35 -58 70 0 71 0 23 38 c13 20 79 134 147 252 68
118 225 391 348 605 123 215 272 474 330 577 59 103 110 188 114 188 5 0 9
-483 10 -1072 l3 -1073 128 -3 127 -3 -2 1318 -3 1318 -126 3 c-93 2 -129 -1
-136 -10 -6 -7 -116 -197 -246 -423 -129 -225 -312 -545 -407 -710 -95 -165
-215 -374 -267 -465 -52 -91 -101 -171 -108 -178 -10 -11 -101 141 -510 860
-274 480 -507 885 -517 901 l-19 27 -130 0 -129 0 0 -1320z"/>
</g>
</svg>
